<svg width="500" height="500" viewBox="0 0 500 500" fill="none" xmlns="http://www.w3.org/2000/svg" shape-rendering="crispEdges">
    <rect y="100" width="100" height="100" fill="#00FF00"/>
    <rect y="200" width="100" height="100" fill="#00FF00"/>
    <rect y="300" width="100" height="100" fill="#00FF00"/>
    <rect y="400" width="100" height="100" fill="#00FF00"/>
    <rect x="100" width="100" height="100" fill="#FF0000"/>
    <rect x="100" y="200" width="100" height="100" fill="#0000FF"/>
    <rect x="100" y="300" width="100" height="100" fill="#0000FF"/>
    <rect x="100" y="400" width="100" height="100" fill="#00FF00"/>
    <rect x="200" width="100" height="100" fill="#FF0000"/>
    <rect x="200" y="100" width="100" height="100" fill="#0000FF"/>
    <rect x="200" y="300" width="100" height="100" fill="#0000FF"/>
    <rect x="200" y="400" width="100" height="100" fill="#00FF00"/>
    <rect x="300" width="100" height="100" fill="#FF0000"/>
    <rect x="300" y="100" width="100" height="100" fill="#0000FF"/>
    <rect x="300" y="200" width="100" height="100" fill="#0000FF"/>
    <rect x="300" y="300" width="100" height="100" fill="#0000FF"/>
    <rect x="300" y="400" width="100" height="100" fill="#00FF00"/>
    <rect x="400" width="100" height="100" fill="#FF0000"/>
    <rect x="400" y="100" width="100" height="100" fill="#FF0000"/>
    <rect x="400" y="200" width="100" height="100" fill="#FF0000"/>
    <rect x="400" y="300" width="100" height="100" fill="#FF0000"/>
</svg>
